<?xml version="1.0" encoding="UTF-8"?>
<svg xmlns="http://www.w3.org/2000/svg" viewBox="0 0 512 512" aria-label="Rosette mark with background">
  <rect width="512" height="512" fill="#F6F5F0"/>
  <g fill="#111">
    <circle cx="256" cy="256" r="56"/>
    <g transform="rotate(0 256 256)">
      <line x1="256" y1="256" x2="256" y2="118" stroke="#111" stroke-width="74" stroke-linecap="round"/>
      <circle cx="256" cy="60" r="58"/>
    </g>
    <g transform="rotate(60 256 256)">
      <line x1="256" y1="256" x2="256" y2="118" stroke="#111" stroke-width="74" stroke-linecap="round"/>
      <circle cx="256" cy="60" r="58"/>
    </g>
    <g transform="rotate(120 256 256)">
      <line x1="256" y1="256" x2="256" y2="118" stroke="#111" stroke-width="74" stroke-linecap="round"/>
      <circle cx="256" cy="60" r="58"/>
    </g>
    <g transform="rotate(180 256 256)">
      <line x1="256" y1="256" x2="256" y2="118" stroke="#111" stroke-width="74" stroke-linecap="round"/>
      <circle cx="256" cy="60" r="58"/>
    </g>
    <g transform="rotate(240 256 256)">
      <line x1="256" y1="256" x2="256" y2="118" stroke="#111" stroke-width="74" stroke-linecap="round"/>
      <circle cx="256" cy="60" r="58"/>
    </g>
    <g transform="rotate(300 256 256)">
      <line x1="256" y1="256" x2="256" y2="118" stroke="#111" stroke-width="74" stroke-linecap="round"/>
      <circle cx="256" cy="60" r="58"/>
    </g>
  </g>
</svg>
